<svg version="1.2" xmlns="http://www.w3.org/2000/svg" viewBox="0 0 445 121" width="445" height="121"><defs><clipPath clipPathUnits="userSpaceOnUse" id="cp1"><path d="m154.32 5.07l62.15 74.06-74.06 62.14-62.15-74.06z"/></clipPath></defs><style>.a{fill:#00ced0}.b{fill:#00083e}</style><path fill-rule="evenodd" class="a" d="m435.6 61.8q-3.1 5.5-8.4 8.8-5.2 3.4-12.8 3.4-5.1 0-9.5-1.7-4.2-1.8-7.4-5-3.2-3.2-5.1-7.5-1.7-4.4-1.7-9.6 0-4.8 1.7-9.1 1.8-4.4 4.9-7.6 3.1-3.3 7.3-5.2 4.3-1.9 9.4-1.9 5.4 0 9.6 1.8 4.1 1.8 7 5 2.8 3.1 4.3 7.3 1.4 4.3 1.4 9.3 0 0.7 0 1.1-0.1 0.6-0.1 1-0.1 0.5-0.1 1h-33.6q0.3 2.8 1.4 4.8 1.2 1.9 2.9 3.3 1.7 1.3 3.7 1.9 2 0.5 4.1 0.5 4.1 0 6.8-1.8 2.7-1.9 4.2-4.7zm-10.8-17.4q-0.1-1.1-0.8-2.6-0.7-1.5-2-2.7-1.3-1.3-3.3-2.1-1.9-0.9-4.7-0.9-3.8 0-6.7 2.2-2.9 2.2-4.1 6.1z"/><path class="a" d="m386.4 61.2q-2.9 5.6-8.2 9.3-5.2 3.5-13 3.5-5.2 0-9.6-1.7-4.3-1.8-7.5-5-3.1-3.2-4.9-7.5-1.7-4.4-1.7-9.6 0-5.2 1.7-9.6 1.8-4.3 4.9-7.4 3.2-3.2 7.5-5 4.4-1.8 9.6-1.8 7.7 0 13 3.6 5.3 3.5 7.8 9.2l-11 4.5q-1.5-3.1-4-4.6-2.4-1.7-6-1.7-2.4 0-4.5 1-2.1 0.9-3.7 2.5-1.6 1.7-2.5 4-0.9 2.4-0.9 5.3 0 2.9 0.9 5.3 0.9 2.4 2.5 4 1.6 1.7 3.7 2.6 2.1 0.9 4.5 0.9 3.7 0 6.3-1.7 2.6-1.7 4.2-4.9z"/><path fill-rule="evenodd" class="a" d="m323.2 67.8h-0.7q-2.1 2.6-5.1 4.4-3 1.8-7.6 1.8-3.5 0-6.6-1.2-3-1.1-5.3-3.1-2.2-2-3.5-4.8-1.3-2.8-1.3-6.2 0-3.5 1.4-6.2 1.3-2.8 3.8-4.8 2.5-2 5.7-3.1 3.4-1 7.3-1 4.4 0 7.2 0.7 2.9 0.6 4.7 1.4v-1.4q0-3.6-2.8-5.9-2.9-2.3-7.1-2.3-6.2 0-10.4 5.2l-8.7-6q1.7-2.1 3.7-3.7 6.4-5.2 15.7-5.2 10.4 0 15.9 4.9 5.5 4.9 5.5 14.4v26.9h-11.8zm0-13.4q-2.1-1.1-4.4-1.6-2.2-0.6-4.8-0.6-4.3 0-6.7 1.9-2.3 1.8-2.3 4.5 0 2.8 2.2 4.4 2.3 1.7 5.2 1.7 2.4 0 4.4-0.9 2-0.9 3.4-2.2 1.4-1.5 2.2-3.3 0.8-1.9 0.8-3.9z"/><path fill-rule="evenodd" class="a" d="m241 27.9h11.2v5.3h0.7q1.6-2.8 5.1-4.8 3.5-2 8.6-2 4.3 0 8.1 1.8 3.9 1.8 6.8 5 3.1 3.1 4.8 7.4 1.7 4.4 1.7 9.6 0 5.2-1.7 9.6-1.7 4.4-4.8 7.6-2.9 3.1-6.8 4.9-3.8 1.7-8.1 1.7-5.1 0-8.6-2-3.5-2-5.1-4.8h-0.7l0.7 6.4v18.7h-11.9zm23.1 35.1q2.4 0 4.5-0.9 2.2-1 3.8-2.6 1.7-1.6 2.7-4 1-2.4 1-5.3 0-2.9-1-5.3-1-2.4-2.7-4-1.6-1.6-3.8-2.6-2.1-0.9-4.5-0.9-2.4 0-4.5 0.9-2.1 0.9-3.8 2.5-1.6 1.7-2.6 4-1 2.4-1 5.4 0 3 1 5.4 1 2.4 2.6 4 1.7 1.6 3.8 2.6 2.1 0.8 4.5 0.8z"/><path class="a" d="m210.3 74q-4.2 0-8-1.2-3.9-1.2-7.1-3.5-3.2-2.4-5.5-5.8-2.4-3.4-3.8-8l11.6-4.6q1.3 5 4.5 8.3 3.2 3.1 8.4 3.1 1.9 0 3.6-0.4 1.9-0.6 3.2-1.5 1.5-1 2.3-2.4 0.8-1.5 0.8-3.4 0-1.8-0.6-3.3-0.7-1.5-2.2-2.7-1.5-1.3-3.9-2.5-2.4-1.2-6-2.5l-4-1.4q-2.6-0.9-5.3-2.5-2.7-1.5-4.9-3.7-2.2-2.2-3.6-5.1-1.4-3-1.4-6.8 0-3.8 1.5-7.1 1.5-3.4 4.2-5.8 2.9-2.6 6.7-3.9 3.9-1.5 8.7-1.5 4.9 0 8.5 1.4 3.6 1.2 6.1 3.3 2.5 2 4.1 4.5 1.5 2.5 2.2 4.7l-10.8 4.5q-0.9-2.7-3.4-4.9-2.4-2.2-6.5-2.2-4.1 0-6.7 1.9-2.7 1.8-2.7 4.9 0 2.9 2.6 5 2.6 2 8.1 3.9l4.1 1.4q3.9 1.3 7.1 3.2 3.3 1.7 5.6 4.1 2.4 2.5 3.6 5.7 1.2 3.1 1.2 7.2 0 5.1-2.1 8.9-2 3.6-5.2 6-3.2 2.3-7.2 3.5-4 1.2-7.8 1.2z"/><path fill-rule="evenodd" class="b" d="m90.5 26.4q5.2 0 9.5 1.8 4.4 1.8 7.5 5 3.1 3.1 4.9 7.4 1.8 4.4 1.8 9.6 0 5.2-1.8 9.6-1.8 4.4-4.9 7.6-3.1 3.1-7.5 4.9-4.3 1.7-9.5 1.7-5.2 0-9.6-1.7-4.3-1.8-7.5-4.9-3.1-3.2-4.9-7.6-1.7-4.4-1.7-9.6 0-5.2 1.7-9.6 1.8-4.3 4.9-7.4 3.2-3.2 7.5-5 4.4-1.8 9.6-1.8zm0 36.6q2.3 0 4.4-0.8 2.2-1 3.8-2.6 1.6-1.6 2.5-4 1.1-2.4 1.1-5.4 0-3-1.1-5.4-0.9-2.3-2.5-4-1.6-1.6-3.8-2.4-2.1-1-4.4-1-2.4 0-4.5 1-2.1 0.8-3.7 2.4-1.7 1.7-2.7 4-0.9 2.4-0.9 5.4 0 3 0.9 5.4 1 2.4 2.7 4 1.6 1.6 3.7 2.6 2.1 0.8 4.5 0.8z"/><path fill-rule="evenodd" class="b" d="m6.6 7.3h22q7.8 0 14 2.3 6.2 2.4 10.6 6.8 4.4 4.3 6.6 10.3 2.4 6 2.4 13.2 0 7.3-2.4 13.3-2.2 6-6.6 10.3-4.4 4.3-10.6 6.7-6.2 2.4-14 2.4h-22zm21.5 53.6q5.4 0 9.5-1.5 4.1-1.5 6.8-4.3 2.8-2.7 4.1-6.5 1.4-3.9 1.4-8.7 0-4.7-1.4-8.6-1.3-3.9-4.1-6.6-2.7-2.8-6.8-4.2-4.1-1.6-9.5-1.6h-9.2v42z"/><path fill-rule="evenodd" class="a" d="m435.6 61.8q-3.1 5.5-8.4 8.8-5.2 3.4-12.8 3.4-5.1 0-9.5-1.7-4.2-1.8-7.4-5-3.2-3.2-5.1-7.5-1.7-4.4-1.7-9.6 0-4.8 1.7-9.1 1.8-4.4 4.9-7.6 3.1-3.3 7.3-5.2 4.3-1.9 9.4-1.9 5.4 0 9.6 1.8 4.1 1.8 7 5 2.8 3.1 4.3 7.3 1.4 4.3 1.4 9.3 0 0.7 0 1.1-0.1 0.6-0.1 1-0.1 0.5-0.1 1h-33.6q0.3 2.8 1.4 4.8 1.2 1.9 2.9 3.3 1.7 1.3 3.7 1.9 2 0.5 4.1 0.5 4.1 0 6.8-1.8 2.7-1.9 4.2-4.7zm-10.8-17.4q-0.1-1.1-0.8-2.6-0.7-1.5-2-2.7-1.3-1.3-3.3-2.1-1.9-0.9-4.7-0.9-3.8 0-6.7 2.2-2.9 2.2-4.1 6.1z"/><path class="a" d="m386.4 61.2q-2.9 5.6-8.2 9.3-5.2 3.5-13 3.5-5.2 0-9.6-1.7-4.3-1.8-7.5-5-3.1-3.2-4.9-7.5-1.7-4.4-1.7-9.6 0-5.2 1.7-9.6 1.8-4.3 4.9-7.4 3.2-3.2 7.5-5 4.4-1.8 9.6-1.8 7.7 0 13 3.6 5.3 3.5 7.8 9.2l-11 4.5q-1.5-3.1-4-4.6-2.4-1.7-6-1.7-2.4 0-4.5 1-2.1 0.9-3.7 2.5-1.6 1.7-2.5 4-0.9 2.4-0.9 5.3 0 2.9 0.9 5.3 0.9 2.4 2.5 4 1.6 1.7 3.7 2.6 2.1 0.9 4.5 0.9 3.7 0 6.3-1.7 2.6-1.7 4.2-4.9z"/><path fill-rule="evenodd" class="a" d="m323.2 67.8h-0.7q-2.1 2.6-5.1 4.4-3 1.8-7.6 1.8-3.5 0-6.6-1.2-3-1.1-5.3-3.1-2.2-2-3.5-4.8-1.3-2.8-1.3-6.2 0-3.5 1.4-6.2 1.3-2.8 3.8-4.8 2.5-2 5.7-3.1 3.4-1 7.3-1 4.4 0 7.2 0.7 2.9 0.6 4.7 1.4v-1.4q0-3.6-2.8-5.9-2.9-2.3-7.1-2.3-6.2 0-10.4 5.2l-8.7-6q1.7-2.1 3.7-3.8 6.4-5.1 15.7-5.1 10.4 0 15.9 4.9 5.5 4.9 5.5 14.4v26.9h-11.8zm0-13.4q-2.1-1.1-4.4-1.6-2.2-0.6-4.8-0.6-4.3 0-6.7 1.9-2.3 1.8-2.3 4.5 0 2.8 2.2 4.4 2.3 1.7 5.2 1.7 2.4 0 4.4-0.9 2-0.9 3.4-2.2 1.4-1.5 2.2-3.3 0.8-1.9 0.8-3.9z"/><path fill-rule="evenodd" class="a" d="m241 27.9h11.2v5.3h0.7q1.6-2.8 5.1-4.8 3.5-2 8.6-2 4.3 0 8.1 1.8 3.9 1.8 6.8 5 3.1 3.1 4.8 7.4 1.7 4.4 1.7 9.6 0 5.2-1.7 9.6-1.7 4.4-4.8 7.6-2.9 3.1-6.8 4.9-3.8 1.7-8.1 1.7-5.1 0-8.6-2-3.5-2-5.1-4.8h-0.7l0.7 6.4v18.7h-11.9zm23.1 35.1q2.4 0 4.5-0.9 2.2-1 3.8-2.6 1.7-1.6 2.7-4 1-2.4 1-5.3 0-2.9-1-5.3-1-2.4-2.7-4-1.6-1.6-3.8-2.6-2.1-0.9-4.5-0.9-2.4 0-4.5 0.9-2.1 0.9-3.8 2.5-1.6 1.7-2.6 4-1 2.4-1 5.4 0 3 1 5.4 1 2.4 2.6 4 1.7 1.6 3.8 2.6 2.1 0.8 4.5 0.8z"/><path class="a" d="m210.3 74q-4.2 0-8-1.2-3.9-1.2-7.1-3.5-3.2-2.4-5.5-5.8-2.4-3.4-3.8-8l11.6-4.6q1.3 5 4.5 8.3 3.2 3.1 8.4 3.1 1.9 0 3.6-0.4 1.9-0.6 3.2-1.5 1.5-1 2.3-2.4 0.8-1.5 0.8-3.4 0-1.8-0.6-3.3-0.7-1.5-2.2-2.7-1.5-1.3-3.9-2.5-2.4-1.2-6-2.5l-4-1.4q-2.6-0.9-5.3-2.5-2.7-1.5-4.9-3.7-2.2-2.2-3.6-5.1-1.4-3-1.4-6.8 0-3.8 1.5-7.1 1.5-3.4 4.2-5.8 2.9-2.6 6.7-3.9 3.9-1.5 8.7-1.5 4.9 0 8.5 1.4 3.6 1.2 6.1 3.3 2.5 2 4.1 4.5 1.5 2.5 2.2 4.7l-10.8 4.5q-0.9-2.7-3.4-4.9-2.4-2.2-6.5-2.2-4.1 0-6.7 1.9-2.7 1.8-2.7 4.9 0 2.9 2.6 5 2.6 2 8.1 3.9l4.1 1.4q3.9 1.3 7.1 3.2 3.3 1.7 5.6 4.1 2.4 2.5 3.6 5.7 1.2 3.1 1.2 7.2 0 5.1-2.1 8.9-2 3.6-5.2 6-3.2 2.3-7.2 3.5-4 1.2-7.8 1.2z"/><path fill-rule="evenodd" class="b" d="m90.5 26.4q5.2 0 9.5 1.8 4.4 1.8 7.5 5 3.1 3.1 4.9 7.4 1.8 4.4 1.8 9.6 0 5.2-1.8 9.6-1.8 4.4-4.9 7.6-3.1 3.1-7.5 4.9-4.3 1.7-9.5 1.7-5.2 0-9.6-1.7-4.3-1.8-7.5-4.9-3.1-3.2-4.9-7.6-1.7-4.4-1.7-9.6 0-5.2 1.7-9.6 1.8-4.3 4.9-7.4 3.2-3.2 7.5-5 4.4-1.8 9.6-1.8zm0 36.6q2.3 0 4.4-0.8 2.2-1 3.8-2.6 1.6-1.6 2.5-4 1.1-2.4 1.1-5.4 0-3-1.1-5.4-0.9-2.3-2.5-4-1.6-1.6-3.8-2.4-2.1-1-4.4-1-2.4 0-4.5 1-2.1 0.8-3.7 2.4-1.7 1.7-2.7 4-0.9 2.4-0.9 5.4 0 3 0.9 5.4 1 2.4 2.7 4 1.6 1.6 3.7 2.6 2.1 0.8 4.5 0.8z"/><path fill-rule="evenodd" class="b" d="m6.6 7.3h22q7.8 0 14 2.3 6.2 2.4 10.6 6.8 4.4 4.3 6.6 10.3 2.4 6 2.4 13.2 0 7.3-2.4 13.3-2.2 6-6.6 10.3-4.4 4.3-10.6 6.7-6.2 2.4-14 2.4h-22zm21.5 53.6q5.4 0 9.5-1.5 4.1-1.5 6.8-4.3 2.8-2.7 4.1-6.5 1.4-3.9 1.4-8.7 0-4.7-1.4-8.6-1.3-3.9-4.1-6.6-2.7-2.8-6.8-4.2-4.1-1.6-9.5-1.6h-9.2v42z"/><g clip-path="url(#cp1)"><path fill-rule="evenodd" class="b" d="m147.1 11.6c1.1-0.9 2.4-1.3 3.8-1.2 1.4 0.1 2.6 0.8 3.5 1.8l4.9 5.8c0.9 1.1 1.3 2.4 1.2 3.8-0.2 1.4-0.8 2.6-1.9 3.5-1 0.9-2.4 1.3-3.8 1.2-1.3-0.1-2.6-0.8-3.5-1.8l-1.5-1.9-15 12.7c-1.8 1.4-3.3 3.2-4.3 5.1-1.1 2-1.8 4.2-2 6.5-0.2 2.2 0 4.5 0.7 6.7 0.6 2.2 1.7 4.2 3.2 5.9 1.5 1.7 3.2 3.2 5.3 4.2 2 1 4.2 1.7 6.4 1.8 2.3 0.2 4.6-0.1 6.7-0.8 2.2-0.7 4.2-1.8 5.9-3.3l15-12.6-1.5-1.9c-0.9-1-1.3-2.4-1.2-3.7 0.1-1.4 0.8-2.7 1.8-3.5 1.1-0.9 2.4-1.4 3.8-1.2 1.4 0.1 2.7 0.7 3.5 1.8l4.9 5.8c0.9 1 1.3 2.4 1.2 3.8-0.1 1.3-0.8 2.6-1.9 3.5l-19 15.9c-4.8 4.1-10.9 6.3-17.1 6.4-6.3 0.1-12.5-1.9-17.4-5.8l-3.1 2.5c-2 1.7-3.7 3.8-4.9 6.2-1.3 2.4-2 5-2.3 7.6-0.2 2.7 0.1 5.4 0.9 7.9 0.8 2.6 2.1 5 3.8 7 1.8 2 3.9 3.7 6.2 5 2.4 1.2 5 2 7.7 2.2 2.6 0.2 5.3-0.1 7.9-0.9 2.5-0.8 4.9-2.1 6.9-3.8l14.2-11.9c-1.6-3.8-1.8-8-0.5-11.9 1.3-3.9 3.9-7.2 7.4-9.3 3.5-2.2 7.7-3 11.7-2.3 4.1 0.6 7.7 2.7 10.4 5.9 2.6 3.1 4.1 7.1 4 11.2 0 4.1-1.5 8-4.2 11.1-2.7 3.1-6.4 5.2-10.5 5.7-4 0.6-8.2-0.3-11.7-2.4l-14.1 11.8c-6.3 5.3-14.3 7.8-22.4 7.1-8.2-0.7-15.7-4.6-20.9-10.8-5.2-6.3-7.8-14.3-7.1-22.5 0.7-8.1 4.6-15.6 10.9-20.8l2.9-2.5c-3.2-5.5-4.4-12.1-3.3-18.4 1.1-6.4 4.5-12.1 9.4-16.3z"/></g></svg>